<svg width="220" height="156" viewBox="0 0 220 156" fill="none" xmlns="http://www.w3.org/2000/svg">
<g clip-path="url(#clip0)">
<path d="M140.638 6.55243H45.6196V79.0857H140.638V6.55243Z" fill="#F2F2F2"/>
<path d="M165.337 125.046C165.337 125.046 167.497 132.17 167.497 133.153C167.497 134.135 171.006 133.89 171.006 133.89L173.706 129.959C173.706 129.959 171.546 126.028 171.006 124.063C170.466 122.098 165.337 125.046 165.337 125.046Z" fill="#FBBEBE"/>
<path d="M169.386 131.679C169.386 131.679 172.626 132.416 172.626 130.205C172.626 127.994 173.975 128.976 173.975 128.976C173.975 128.976 177.215 130.696 175.865 132.416C174.515 134.135 172.086 136.101 171.276 137.82C170.466 139.54 168.037 144.208 165.337 143.225C162.638 142.243 164.528 140.031 164.528 140.031C164.528 140.031 166.687 137.083 166.147 134.627C165.607 132.17 165.337 130.942 166.147 130.942C166.957 130.942 168.307 130.205 168.307 131.187C168.307 132.17 169.386 131.679 169.386 131.679Z" fill="#2F2E41"/>
<path d="M169.252 40.4126C174.917 40.4126 179.509 36.233 179.509 31.0772C179.509 25.9213 174.917 21.7417 169.252 21.7417C163.586 21.7417 158.994 25.9213 158.994 31.0772C158.994 36.233 163.586 40.4126 169.252 40.4126Z" fill="#2F2E41"/>
<path d="M168.172 31.5685C173.241 31.5685 177.35 27.8289 177.35 23.2158C177.35 18.6027 173.241 14.863 168.172 14.863C163.103 14.863 158.994 18.6027 158.994 23.2158C158.994 27.8289 163.103 31.5685 168.172 31.5685Z" fill="#2F2E41"/>
<path d="M163.313 72.5953L157.914 72.1039L155.71 67.1974L156.025 62.7685H163.313V72.5953Z" fill="#57B894"/>
<path opacity="0.1" d="M163.313 72.5953L157.914 72.1039L155.71 67.1974L156.025 62.7685H163.313V72.5953Z" fill="black"/>
<path d="M163.718 37.3417C163.718 37.3417 163.448 43.4835 162.368 44.2205C161.288 44.9575 163.988 47.9055 163.988 47.9055L168.307 46.9228L171.546 44.2205L170.196 43.9748C170.196 43.9748 170.196 40.5354 171.006 39.5528C171.816 38.5701 163.718 37.3417 163.718 37.3417Z" fill="#FBBEBE"/>
<path opacity="0.1" d="M163.718 37.3417C163.718 37.3417 163.448 43.4835 162.368 44.2205C161.288 44.9575 163.988 47.9055 163.988 47.9055L168.307 46.9228L171.546 44.2205L170.196 43.9748C170.196 43.9748 170.196 40.5354 171.006 39.5528C171.816 38.5701 163.718 37.3417 163.718 37.3417Z" fill="black"/>
<path d="M156.16 61.4173C156.16 61.4173 158.859 67.8047 158.319 73.2095C157.779 78.6142 170.466 73.9465 170.466 73.9465L174.245 71.7354C174.245 71.7354 175.325 65.1024 174.245 63.6283C173.166 62.1543 171.006 56.9953 171.006 56.9953L165.337 56.2583L156.16 61.4173Z" fill="#FBBEBE"/>
<path d="M201.547 89.6179C201.547 89.6179 206.151 84.9874 206.921 84.542C207.69 84.0966 205.907 81.9307 205.907 81.9307L201.604 81.9605C201.604 81.9605 199.503 85.1435 198.208 86.3846C196.913 87.6258 201.547 89.6179 201.547 89.6179Z" fill="#FBBEBE"/>
<path d="M204.909 83.9839C204.909 83.9839 204.018 81.5478 202.286 82.5499C200.554 83.552 200.712 82.2308 200.712 82.2308C200.712 82.2308 200.591 79.3492 202.55 79.4457C204.509 79.5421 207.15 80.2279 208.865 79.974C210.579 79.7201 215.337 79.181 215.791 81.3781C216.245 83.5753 213.656 83.3512 213.656 83.3512C213.656 83.3512 210.367 83.286 208.687 84.7498C207.007 86.2137 206.167 86.9456 205.8 86.4201C205.433 85.8945 204.244 85.3527 205.014 84.9073C205.784 84.4619 204.909 83.9839 204.909 83.9839Z" fill="#2F2E41"/>
<path d="M160.748 41.7638C160.748 41.7638 157.509 40.0441 156.699 35.1307C155.89 30.2173 150.221 13.0205 150.221 13.0205C150.221 13.0205 146.442 1.22835 145.092 5.15906C143.742 9.08977 146.712 13.5118 146.712 13.5118L150.491 29.4803C150.491 29.4803 153.73 50.1165 155.35 51.0992C156.969 52.0819 160.748 41.7638 160.748 41.7638Z" fill="#FBBEBE"/>
<path d="M173.893 42.7181C173.893 42.7181 177.643 42.6809 181.017 38.7745C184.39 34.8682 198.66 22.4713 198.66 22.4713C198.66 22.4713 208.351 13.922 207.389 17.9459C206.427 21.9699 201.443 24.4775 201.443 24.4775L189.483 36.6569C189.483 36.6569 175.456 53.1366 173.514 53.2619C171.573 53.3872 173.893 42.7181 173.893 42.7181Z" fill="#FBBEBE"/>
<path d="M168.307 41.2724C172.034 41.2724 175.055 38.5227 175.055 35.1307C175.055 31.7387 172.034 28.989 168.307 28.989C164.58 28.989 161.558 31.7387 161.558 35.1307C161.558 38.5227 164.58 41.2724 168.307 41.2724Z" fill="#FBBEBE"/>
<path d="M174.725 67.8695C174.725 67.8695 165.337 73.9465 161.828 72.9638C158.319 71.9811 157.779 71.2441 157.779 71.2441C157.779 71.2441 154.54 91.389 156.969 99.2504C156.969 99.2504 157.239 107.112 159.669 110.06L165.337 127.011C165.337 127.011 171.546 126.765 171.546 124.8C171.546 124.8 170.736 120.624 170.736 117.676C170.736 114.728 166.417 107.357 166.417 107.357L169.386 86.7213C169.386 86.7213 180.724 107.357 185.313 105.883C189.902 104.409 202.859 88.9323 202.859 88.9323L198.81 85.4929C198.81 85.4929 187.472 91.6347 186.123 94.8284C186.123 94.8284 177.095 69.654 174.725 67.8695Z" fill="#2F2E41"/>
<path d="M167.497 44.9575C167.497 44.9575 171.006 42.5008 171.546 42.5008H175.055C175.055 42.5008 177.755 48.3969 176.675 50.8535C176.675 50.8535 175.325 57.2409 175.055 57.7323C174.785 58.2236 175.055 59.6976 175.595 61.1717C176.135 62.6457 177.755 65.8394 176.945 66.5764C176.135 67.3134 175.325 69.2787 174.785 69.2787C174.245 69.2787 169.926 65.5937 169.117 63.137C168.307 60.6803 168.307 59.9433 166.417 60.926C164.528 61.9087 156.159 61.4173 156.699 65.348C156.943 67.3296 157.303 69.2978 157.779 71.2441C157.779 71.2441 154.54 72.2268 154 67.5591C153.46 62.8913 152.92 62.6457 154.54 60.926C156.159 59.2063 154 52.0819 154 52.0819C154 52.0819 156.699 47.9055 157.239 45.6945C157.779 43.4835 159.939 41.2724 159.939 41.2724C159.939 41.2724 161.288 40.5354 162.098 41.0268C162.908 41.5181 163.341 41.2724 163.341 41.2724C163.341 41.2724 161.828 44.7118 163.448 44.7118C165.067 44.7118 167.497 44.9575 167.497 44.9575Z" fill="#57B894"/>
<path opacity="0.1" d="M163.448 71.6126C163.671 71.6126 163.853 71.2826 163.853 70.8756C163.853 70.4686 163.671 70.1386 163.448 70.1386C163.224 70.1386 163.043 70.4686 163.043 70.8756C163.043 71.2826 163.224 71.6126 163.448 71.6126Z" fill="black"/>
<path d="M168.982 34.2709C173.454 34.2709 177.08 32.181 177.08 29.6031C177.08 27.0252 173.454 24.9354 168.982 24.9354C164.509 24.9354 160.883 27.0252 160.883 29.6031C160.883 32.181 164.509 34.2709 168.982 34.2709Z" fill="#2F2E41"/>
<path d="M30.5031 61.2945C36.7646 61.2945 41.8405 55.0251 41.8405 47.2913C41.8405 39.5576 36.7646 33.2882 30.5031 33.2882C24.2416 33.2882 19.1656 39.5576 19.1656 47.2913C19.1656 55.0251 24.2416 61.2945 30.5031 61.2945Z" fill="#2F2E41"/>
<path d="M33.3457 56.1596C33.3457 56.1596 37.9264 52.0819 38.4663 50.6079C39.0062 49.1339 45.4847 24.0756 45.4847 24.0756C45.4847 24.0756 50.8835 10.0724 53.3129 13.5118C55.7424 16.9512 49.2638 25.0583 49.2638 25.0583C49.2638 25.0583 47.6442 40.5354 46.5644 44.2205C45.4847 47.9055 41.7055 61.663 39.2761 63.137L36.8466 67.559L34.1473 68.0504L31.7178 61.9087L31.9878 59.452L33.3457 56.1596Z" fill="#A0616A"/>
<path d="M46.8344 121.361C46.8344 121.361 53.3129 123.08 54.1227 122.098C54.9325 121.115 57.9018 127.011 57.9018 127.011V129.222L55.2024 129.713C55.2024 129.713 47.1043 126.52 45.7546 126.52C44.4049 126.52 46.8344 121.361 46.8344 121.361Z" fill="#A0616A"/>
<path d="M55.2025 125.046C55.2025 125.046 51.4233 122.098 52.2331 121.606C53.0429 121.115 56.2822 117.676 57.9018 119.641C59.5215 121.606 66.8098 132.416 64.9202 134.872C63.0307 137.329 61.681 135.855 61.681 135.855C61.681 135.855 56.6605 129.713 54.7168 129.713C54.7168 129.713 57.362 127.011 55.2025 125.046Z" fill="#2F2E41"/>
<path d="M28.2086 143.471C28.2086 143.471 28.4785 151.578 26.0491 154.035C23.6196 156.491 29.2883 156 29.2883 156L35.227 152.315C35.227 152.315 33.6074 148.384 34.1472 144.699L28.2086 143.471Z" fill="#A0616A"/>
<path d="M35.227 150.35C35.227 150.35 34.6871 149.858 33.3374 151.332C31.9877 152.806 29.2883 154.526 27.6687 153.052C26.0491 151.578 26.0491 152.806 26.0491 152.806C26.0491 152.806 22.5399 157.965 19.5705 158.702C16.6012 159.439 18.7607 161.896 21.4601 160.913C24.1595 159.931 37.3865 155.754 37.3865 155.754C37.3865 155.754 37.1166 152.315 35.227 150.35Z" fill="#2F2E41"/>
<path d="M15.5215 85.0016L11.4724 90.652C11.4724 90.652 1.48466 97.7764 6.61349 98.5134C11.7423 99.2504 14.7116 91.8803 14.7116 91.8803L18.2209 87.9496L15.5215 85.0016Z" fill="#A0616A"/>
<path d="M14.1718 84.0189C14.1718 84.0189 18.7607 90.1606 20.9202 90.652C23.0798 91.1433 22.2699 85.9843 22.2699 85.9843L14.1718 84.0189Z" fill="#FFAA00"/>
<path opacity="0.1" d="M14.1718 84.0189C14.1718 84.0189 18.7607 90.1606 20.9202 90.652C23.0798 91.1433 22.2699 85.9843 22.2699 85.9843L14.1718 84.0189Z" fill="black"/>
<path d="M20.1104 83.5276L20.9202 96.3024C20.9202 96.3024 17.9509 115.219 22.5399 119.641C22.5399 119.641 25.2393 126.274 25.2393 128.731C25.2393 131.187 27.1288 145.928 27.1288 145.928H34.957C34.957 145.928 36.5767 125.537 32.2577 119.15V84.2646L20.1104 83.5276Z" fill="#2F2E41"/>
<path opacity="0.1" d="M19.9774 108.844C20.0158 113.35 20.6082 117.78 22.5399 119.641C22.5399 119.641 25.2393 126.274 25.2393 128.731C25.2393 131.187 27.1288 145.928 27.1288 145.928H34.957C34.957 145.928 36.5767 125.537 32.2577 119.15V110.028" fill="black"/>
<path d="M28.4785 86.4756L20.3804 105.883C20.3804 105.883 15.5215 122.589 21.4601 124.309C27.3988 126.028 42.7853 125.537 45.2147 127.257C47.6442 128.976 48.9939 122.098 48.184 121.361C47.3742 120.624 34.4172 116.693 29.0184 116.693C29.0184 116.693 43.3251 99.0047 39.8159 95.074C36.3067 91.1433 31.4478 86.2299 28.4785 86.4756Z" fill="#2F2E41"/>
<path d="M26.589 49.1339C26.589 49.1339 26.8589 55.7669 25.5092 56.0126C24.4016 56.2586 23.3182 56.5873 22.2699 56.9953V60.6803L24.4294 61.9087L29.8282 58.9606L31.9877 57.2409L34.1472 55.5213C34.1472 55.5213 32.7975 52.0819 34.1472 49.8709L26.589 49.1339Z" fill="#A0616A"/>
<path opacity="0.1" d="M26.589 49.1339C26.589 49.1339 26.8589 55.7669 25.5092 56.0126C24.4016 56.2586 23.3182 56.5873 22.2699 56.9953V60.6803L24.4294 61.9087L29.8282 58.9606L31.9877 57.2409L34.1472 55.5213C34.1472 55.5213 32.7975 52.0819 34.1472 49.8709L26.589 49.1339Z" fill="black"/>
<path d="M25.5092 59.6976C25.5092 59.6976 30.0982 55.7669 31.1779 56.0126C32.2577 56.2583 35.362 54.4157 35.362 54.4157C34.7613 56.3017 34.3547 58.2345 34.1472 60.189C34.001 61.7858 34.33 62.6619 34.6623 63.1295C35.0476 63.6563 35.3604 64.2241 35.5939 64.8202C36.0406 66.0086 36.8683 67.4443 37.9264 65.8394C37.9264 65.8394 37.3865 68.5417 36.8466 76.4031C36.3068 84.2646 39.2761 89.6693 39.2761 89.6693C39.2761 89.6693 41.7055 95.5653 40.6258 96.7937C40.6258 96.7937 32.2577 91.8803 32.7975 89.6693C32.7975 89.6693 13.362 87.2126 13.362 84.0189C13.3568 83.099 13.6003 82.1922 14.071 81.3782C14.5418 80.5642 15.2253 79.8681 16.0614 79.3512C16.2419 77.8456 16.604 76.3626 17.1411 74.9291C17.1411 74.9291 14.1718 69.2787 16.8712 64.611C16.8712 64.611 14.4417 58.2236 17.681 56.7496C20.9202 55.2756 24.9693 56.0126 24.9693 56.0126C24.9693 56.0126 21.1902 58.2236 23.6196 59.452L25.5092 59.6976Z" fill="#FFAA00"/>
<path d="M30.638 52.0819C34.3651 52.0819 37.3865 49.3321 37.3865 45.9402C37.3865 42.5482 34.3651 39.7984 30.638 39.7984C26.911 39.7984 23.8896 42.5482 23.8896 45.9402C23.8896 49.3321 26.911 52.0819 30.638 52.0819Z" fill="#A0616A"/>
<path d="M31.1779 45.8173C35.2777 45.8173 38.6012 44.2225 38.6012 42.2551C38.6012 40.2878 35.2777 38.6929 31.1779 38.6929C27.0781 38.6929 23.7546 40.2878 23.7546 42.2551C23.7546 44.2225 27.0781 45.8173 31.1779 45.8173Z" fill="#2F2E41"/>
<path d="M22.4049 37.7102C23.5976 37.7102 24.5644 36.8303 24.5644 35.7449C24.5644 34.6595 23.5976 33.7795 22.4049 33.7795C21.2122 33.7795 20.2454 34.6595 20.2454 35.7449C20.2454 36.8303 21.2122 37.7102 22.4049 37.7102Z" fill="#2F2E41"/>
<path d="M38.6012 37.7102C39.7939 37.7102 40.7607 36.8303 40.7607 35.7449C40.7607 34.6595 39.7939 33.7795 38.6012 33.7795C37.4086 33.7795 36.4417 34.6595 36.4417 35.7449C36.4417 36.8303 37.4086 37.7102 38.6012 37.7102Z" fill="#2F2E41"/>
<path d="M146.577 0.122833H51.5583V72.6561H146.577V0.122833Z" stroke="#57B894" stroke-miterlimit="10"/>
<path d="M99.0675 24.0175V19.3781L92.3918 25.564L99.0675 31.7501V27.1105C104.575 27.1105 109.081 31.286 109.081 36.3895C109.081 37.8975 108.68 39.3831 107.912 40.7194L110.333 42.9621C111.698 40.9953 112.421 38.7159 112.419 36.3895C112.419 29.585 106.411 24.0175 99.0675 24.0175ZM99.0675 45.6685C93.56 45.6685 89.054 41.4925 89.054 36.3895C89.054 34.8814 89.4548 33.3958 90.2222 32.0592L87.8023 29.8169C86.4257 31.7791 85.7013 34.0614 85.7162 36.3895C85.7162 43.1939 91.7244 48.7614 99.0675 48.7614V53.4008L105.743 47.215L99.0675 41.0288V45.6685Z" fill="#FFAA00"/>
<path d="M217.744 130.773C218.561 131.044 219.437 131.138 220.301 131.048C221.166 130.958 221.995 130.686 222.725 130.255C223.454 129.823 224.064 129.243 224.505 128.561C224.946 127.878 225.207 127.112 225.268 126.322C225.328 125.532 225.186 124.74 224.852 124.009C224.519 123.277 224.004 122.626 223.347 122.107C222.69 121.588 221.909 121.215 221.067 121.017C220.224 120.819 219.343 120.802 218.492 120.967L218.632 123.599L217.264 121.343C215.922 121.918 214.884 122.953 214.38 124.223C214.201 124.668 214.093 125.134 214.057 125.606C213.971 126.715 214.284 127.819 214.949 128.752C215.614 129.684 216.595 130.394 217.744 130.773Z" fill="#57B894"/>
<path d="M217.975 130.095C218.793 130.366 219.668 130.46 220.533 130.37C221.397 130.28 222.227 130.009 222.956 129.577C223.686 129.145 224.295 128.566 224.736 127.883C225.178 127.201 225.439 126.434 225.499 125.644C225.559 124.854 225.417 124.062 225.084 123.331C224.75 122.6 224.235 121.949 223.578 121.429C222.921 120.91 222.14 120.537 221.298 120.339C220.456 120.141 219.574 120.124 218.723 120.289L218.864 122.921L217.496 120.666C216.153 121.24 215.116 122.276 214.612 123.546C214.433 123.99 214.324 124.456 214.289 124.929C214.202 126.038 214.515 127.142 215.181 128.074C215.846 129.007 216.827 129.716 217.975 130.095V130.095Z" stroke="#57B894" stroke-miterlimit="10"/>
</g>
<defs>
<clipPath id="clip0">
<rect width="220" height="156" fill="white"/>
</clipPath>
</defs>
</svg>
